<svg xmlns="http://www.w3.org/2000/svg" width="22" height="23" viewBox="0 0 16 16">
    <path fill="#FFF" fill-rule="nonzero" stroke-linecap="round" stroke-linejoin="round" d="M5.667 11H2.905A2.333 2.333 0 0 1 .572 8.315l.92-5.998A2.33 2.33 0 0 1 3.812.333h7.52a1 1 0 0 1 1 1v7.334a1 1 0 0 1-.086.406l-2.667 6a1 1 0 0 1-.913.594 3 3 0 0 1-3-3V11zm4.666-8.667H3.802a.334.334 0 0 0-.334.285l-.92 5.999A.333.333 0 0 0 2.894 9h3.774a1 1 0 0 1 1 1v2.667c0 .34.17.64.43.821l2.236-5.034v-6.12zm2 0v5.334h.798a.54.54 0 0 0 .536-.418V2.75a.547.547 0 0 0-.554-.418h-.78zm-1-2h1.763a2.54 2.54 0 0 1 2.562 2.2l.009.134v4.666l-.01.134a2.535 2.535 0 0 1-2.544 2.2h-1.78a1 1 0 0 1-1-1V1.333a1 1 0 0 1 1-1z"/>
</svg>
