<svg xmlns="http://www.w3.org/2000/svg" width="22" height="23" viewBox="0 0 22 23">
    <path fill="#000" fill-rule="nonzero" d="M7.134 15.25H3.287a3.214 3.214 0 0 1-2.49-1.146 3.398 3.398 0 0 1-.76-2.692l1.281-8.576C1.561 1.191 2.948-.018 4.553 0h10.474c.77 0 1.393.64 1.393 1.43v10.485c0 .2-.04.398-.12.58l-3.714 8.579c-.224.516-.723.849-1.273.849-2.308 0-4.179-1.92-4.179-4.29v-2.382zm6.5-12.39H4.538a.469.469 0 0 0-.465.407l-1.281 8.576c-.02.138.02.279.109.384.089.106.22.166.371.164h5.256c.77 0 1.393.64 1.393 1.43v3.813c0 .486.237.916.598 1.174l3.117-7.197V2.86zm2.786 0v7.625h1.112a.756.756 0 0 0 .746-.598v-6.43a.765.765 0 0 0-.771-.597H16.42zM15.027 0h2.455c1.795-.032 3.328 1.32 3.569 3.145l.013.191v6.672l-.013.192c-.24 1.825-1.774 3.177-3.544 3.144h-2.48c-.769 0-1.392-.64-1.392-1.43V1.43c0-.79.623-1.43 1.392-1.43z" opacity=".5"/>
</svg>
