<svg xmlns="http://www.w3.org/2000/svg" xmlns:xlink="http://www.w3.org/1999/xlink" width="18" height="13" viewBox="0 0 24 18">
    <path fill="#fff" id="a" d="M23.315 15.408L13.14 9.514a.626.626 0 0 1-.304-.541v-.11c0-.32.256-.528.477-.61a4.263 4.263 0 0 0 2.764-4.001 4.265 4.265 0 0 0-1.219-2.997 4.113 4.113 0 0 0-5.918.001A4.268 4.268 0 0 0 7.72 4.252a.938.938 0 0 0 1.875 0c0-.635.243-1.234.685-1.686.872-.891 2.365-.89 3.236 0 .442.453.685 1.051.685 1.686 0 .636-.243 1.235-.685 1.687-.24.246-.535.439-.851.555-1.035.381-1.704 1.311-1.704 2.37v.109c0 .89.474 1.718 1.239 2.163l8.557 4.956H3.482l5.672-2.865a.937.937 0 0 0-.846-1.673L.75 15.372a1.37 1.37 0 0 0-.712 1.545 1.36 1.36 0 0 0 1.326 1.05h21.27a1.35 1.35 0 0 0 1.317-1.013 1.359 1.359 0 0 0-.636-1.546z"/>
</svg>
