<svg xmlns="http://www.w3.org/2000/svg" width="22" height="23" viewBox="0 0 22 23">
    <path fill="#FFF" fill-rule="nonzero" stroke-linecap="round" stroke-linejoin="round" d="M14.7 6.9h3.827a3.2 3.2 0 0 1 2.477 1.14c.623.733.9 1.71.757 2.674l-1.275 8.52c-.242 1.633-1.621 2.835-3.218 2.816H6.846c-.766 0-1.386-.636-1.386-1.42V10.214c0-.198.04-.395.12-.576l3.695-8.522a1.385 1.385 0 0 1 1.267-.844c2.296 0 4.157 1.908 4.157 4.261V6.9zm2.584 12.31a.466.466 0 0 0 .462-.405l1.275-8.52a.482.482 0 0 0-.108-.381.466.466 0 0 0-.37-.163h-5.23c-.765 0-1.386-.636-1.386-1.42V4.533c0-.483-.235-.91-.595-1.166l-3.1 7.149v8.694h9.052zM5.46 11.635H4.074a.468.468 0 0 0-.462.473v6.628c0 .262.207.474.462.474H5.46v-7.575zM6.846 22.05H4.074C2.288 22.05.84 20.566.84 18.736v-6.628c0-1.83 1.448-3.314 3.234-3.314h2.772c.765 0 1.386.636 1.386 1.42V20.63c0 .784-.62 1.42-1.386 1.42z" opacity=".5"/>
</svg>
